<?xml version="1.0" encoding="iso-8859-1"?>
<!-- Generator: Adobe Illustrator 19.0.0, SVG Export Plug-In . SVG Version: 6.00 Build 0)  -->
<svg version="1.1" id="Capa_1" xmlns="http://www.w3.org/2000/svg" xmlns:xlink="http://www.w3.org/1999/xlink" x="0px" y="0px"
	 viewBox="0 0 512 512" style="enable-background:new 0 0 512 512;" xml:space="preserve">
<path style="fill:#CFD8DC;" d="M373.333,117.333H138.667C62.083,117.333,0,179.417,0,256s62.083,138.667,138.667,138.667h234.667
	C449.917,394.667,512,332.583,512,256S449.917,117.333,373.333,117.333z"/>
<circle style="fill:#F44336;" cx="138.667" cy="256" r="96"/>
<g>
	<path style="fill:#455A64;" d="M288,309.333c-17.673,0-32-14.327-32-32v-42.667c0-17.673,14.327-32,32-32c17.673,0,32,14.327,32,32
		v42.667C320,295.006,305.673,309.333,288,309.333z M288,224c-5.891,0-10.667,4.776-10.667,10.667v42.667
		c0,5.891,4.776,10.667,10.667,10.667c5.891,0,10.667-4.776,10.667-10.667v-42.667C298.667,228.776,293.891,224,288,224z"/>
	<path style="fill:#455A64;" d="M352,309.333c-5.891,0-10.667-4.776-10.667-10.667v-85.333c0-5.891,4.776-10.667,10.667-10.667h32
		c5.891,0,10.667,4.776,10.667,10.667c0,5.891-4.776,10.667-10.667,10.667h-21.333v74.667
		C362.667,304.558,357.891,309.333,352,309.333z"/>
	<path style="fill:#455A64;" d="M373.333,266.667H352c-5.891,0-10.667-4.776-10.667-10.667c0-5.891,4.776-10.667,10.667-10.667
		h21.333c5.891,0,10.667,4.776,10.667,10.667C384,261.891,379.224,266.667,373.333,266.667z"/>
	<path style="fill:#455A64;" d="M416,309.333c-5.891,0-10.667-4.776-10.667-10.667v-85.333c0-5.891,4.776-10.667,10.667-10.667h32
		c5.891,0,10.667,4.776,10.667,10.667c0,5.891-4.776,10.667-10.667,10.667h-21.333v74.667
		C426.667,304.558,421.891,309.333,416,309.333z"/>
	<path style="fill:#455A64;" d="M437.333,266.667H416c-5.891,0-10.667-4.776-10.667-10.667c0-5.891,4.776-10.667,10.667-10.667
		h21.333c5.891,0,10.667,4.776,10.667,10.667C448,261.891,443.224,266.667,437.333,266.667z"/>
</g>
<path d="M138.667,352c-53.019,0-96-42.981-96-96s42.981-96,96-96s96,42.981,96,96S191.686,352,138.667,352L138.667,352z
	 M138.667,181.333C97.429,181.333,64,214.763,64,256s33.429,74.667,74.667,74.667s74.667-33.429,74.667-74.667
	S179.904,181.333,138.667,181.333z"/>
<path d="M373.333,394.667H138.667C62.083,394.667,0,332.583,0,256s62.083-138.667,138.667-138.667h234.667
	C449.917,117.333,512,179.417,512,256S449.917,394.667,373.333,394.667z M138.667,138.667c-64.801,0-117.333,52.532-117.333,117.333
	s52.532,117.333,117.333,117.333h234.667c64.801,0,117.333-52.532,117.333-117.333s-52.532-117.333-117.333-117.333H138.667z"/>
<path d="M288,309.333c-17.673,0-32-14.327-32-32v-42.667c0-17.673,14.327-32,32-32c17.673,0,32,14.327,32,32v42.667
	C320,295.006,305.673,309.333,288,309.333z M288,224c-5.891,0-10.667,4.776-10.667,10.667v42.667
	c0,5.891,4.776,10.667,10.667,10.667c5.891,0,10.667-4.776,10.667-10.667v-42.667C298.667,228.776,293.891,224,288,224z"/>
<path d="M352,309.333c-5.891,0-10.667-4.776-10.667-10.667v-85.333c0-5.891,4.776-10.667,10.667-10.667h32
	c5.891,0,10.667,4.776,10.667,10.667c0,5.891-4.776,10.667-10.667,10.667h-21.333v74.667
	C362.667,304.558,357.891,309.333,352,309.333z"/>
<path d="M373.333,266.667H352c-5.891,0-10.667-4.776-10.667-10.667c0-5.891,4.776-10.667,10.667-10.667h21.333
	c5.891,0,10.667,4.776,10.667,10.667C384,261.891,379.224,266.667,373.333,266.667z"/>
<path d="M416,309.333c-5.891,0-10.667-4.776-10.667-10.667v-85.333c0-5.891,4.776-10.667,10.667-10.667h32
	c5.891,0,10.667,4.776,10.667,10.667c0,5.891-4.776,10.667-10.667,10.667h-21.333v74.667
	C426.667,304.558,421.891,309.333,416,309.333z"/>
<path d="M437.333,266.667H416c-5.891,0-10.667-4.776-10.667-10.667c0-5.891,4.776-10.667,10.667-10.667h21.333
	c5.891,0,10.667,4.776,10.667,10.667C448,261.891,443.224,266.667,437.333,266.667z"/>
<g>
</g>
<g>
</g>
<g>
</g>
<g>
</g>
<g>
</g>
<g>
</g>
<g>
</g>
<g>
</g>
<g>
</g>
<g>
</g>
<g>
</g>
<g>
</g>
<g>
</g>
<g>
</g>
<g>
</g>
</svg>
