<?xml version="1.0" encoding="iso-8859-1"?>
<!-- Generator: Adobe Illustrator 19.0.0, SVG Export Plug-In . SVG Version: 6.00 Build 0)  -->
<svg version="1.1" id="Capa_1" xmlns="http://www.w3.org/2000/svg" xmlns:xlink="http://www.w3.org/1999/xlink" x="0px" y="0px"
	 viewBox="0 0 512 512" style="enable-background:new 0 0 512 512;" xml:space="preserve">
<path style="fill:#CFD8DC;" d="M373.333,117.333H138.667C62.083,117.333,0,179.417,0,256s62.083,138.667,138.667,138.667h234.667
	C449.917,394.667,512,332.583,512,256S449.917,117.333,373.333,117.333z"/>
<circle style="fill:#4CAF50;" cx="373.333" cy="256" r="96"/>
<g>
	<path style="fill:#455A64;" d="M117.333,309.333c-17.673,0-32-14.327-32-32v-42.667c0-17.673,14.327-32,32-32s32,14.327,32,32
		v42.667C149.333,295.006,135.006,309.333,117.333,309.333z M117.333,224c-5.891,0-10.667,4.776-10.667,10.667v42.667
		c0,5.891,4.776,10.667,10.667,10.667S128,283.224,128,277.333v-42.667C128,228.776,123.224,224,117.333,224z"/>
	<path style="fill:#455A64;" d="M224,309.333c-4.037,0-7.728-2.279-9.536-5.888L192,258.517v40.149
		c0,5.891-4.776,10.667-10.667,10.667c-5.891,0-10.667-4.776-10.667-10.667v-85.333c0.006-4.941,3.405-9.232,8.213-10.368
		c4.819-1.186,9.812,1.151,11.989,5.611l22.464,44.907v-40.149c0-5.891,4.776-10.667,10.667-10.667
		c5.891,0,10.667,4.776,10.667,10.667v85.333c-0.006,4.941-3.405,9.232-8.213,10.368C225.651,309.237,224.827,309.337,224,309.333z"
		/>
</g>
<path d="M373.333,352c-53.019,0-96-42.981-96-96s42.981-96,96-96s96,42.981,96,96S426.353,352,373.333,352L373.333,352z
	 M373.333,181.333c-41.237,0-74.667,33.429-74.667,74.667s33.429,74.667,74.667,74.667S448,297.237,448,256
	S414.571,181.333,373.333,181.333z"/>
<path d="M373.333,394.667H138.667C62.083,394.667,0,332.583,0,256s62.083-138.667,138.667-138.667h234.667
	C449.917,117.333,512,179.417,512,256S449.917,394.667,373.333,394.667z M138.667,138.667c-64.801,0-117.333,52.532-117.333,117.333
	s52.532,117.333,117.333,117.333h234.667c64.801,0,117.333-52.532,117.333-117.333s-52.532-117.333-117.333-117.333H138.667z"/>
<path d="M117.333,309.333c-17.673,0-32-14.327-32-32v-42.667c0-17.673,14.327-32,32-32s32,14.327,32,32v42.667
	C149.333,295.006,135.006,309.333,117.333,309.333z M117.333,224c-5.891,0-10.667,4.776-10.667,10.667v42.667
	c0,5.891,4.776,10.667,10.667,10.667S128,283.224,128,277.333v-42.667C128,228.776,123.224,224,117.333,224z"/>
<path d="M224,309.333c-4.037,0-7.728-2.279-9.536-5.888L192,258.517v40.149c0,5.891-4.776,10.667-10.667,10.667
	c-5.891,0-10.667-4.776-10.667-10.667v-85.333c0-5.891,4.776-10.666,10.667-10.666c4.036,0,7.727,2.279,9.535,5.887l22.464,44.928
	v-40.149c0-5.891,4.776-10.667,10.667-10.667c5.891,0,10.667,4.776,10.667,10.667v85.333c-0.006,4.941-3.405,9.232-8.213,10.368
	C225.651,309.235,224.827,309.335,224,309.333z"/>
<g>
</g>
<g>
</g>
<g>
</g>
<g>
</g>
<g>
</g>
<g>
</g>
<g>
</g>
<g>
</g>
<g>
</g>
<g>
</g>
<g>
</g>
<g>
</g>
<g>
</g>
<g>
</g>
<g>
</g>
</svg>
